<svg xmlns="http://www.w3.org/2000/svg" xmlns:xlink="http://www.w3.org/1999/xlink" width="463.773" height="195.4" viewBox="0 0 463.773 195.4"><defs><style>.a{fill:#aab5bf;}.b{fill:none;}.c{fill:#edeff1;}.d{clip-path:url(#a);}.e{clip-path:url(#b);}.f{clip-path:url(#c);}</style><clipPath id="a"><path class="a" d="M0,14.015H65.025v-32.53H0Z" transform="translate(0 18.515)"/></clipPath><clipPath id="b"><path class="b" d="M0,7.806H40.343V-15.176H0Z" transform="translate(0 15.176)"/></clipPath><clipPath id="c"><path class="b" d="M0,22.938H66.905V-15.176H0Z" transform="translate(0 15.176)"/></clipPath></defs><path class="c" d="M4098,1909.037S4171.6,1856,4246.856,1856s146.95,47.8,146.95,47.8,86.441,43.22,142.882-5.593,0,64.068,0,64.068H4098Z" transform="translate(-4098 -1766.872)"/><g transform="matrix(0.946, -0.326, 0.326, 0.946, 40.004, 98.478)"><g class="d" transform="translate(0 -18.515)"><g transform="translate(8.867 20.702)"><path class="a" d="M5.094,2.548A5.912,5.912,0,0,1-.819,8.462a5.912,5.912,0,0,1-5.91-5.914A5.912,5.912,0,0,1-.819-3.366,5.912,5.912,0,0,1,5.094,2.548" transform="translate(6.729 3.366)"/></g><g transform="translate(44.335 20.702)"><path class="a" d="M5.094,2.548A5.912,5.912,0,0,1-.819,8.462a5.912,5.912,0,0,1-5.91-5.914A5.912,5.912,0,0,1-.819-3.366,5.912,5.912,0,0,1,5.094,2.548" transform="translate(6.729 3.366)"/></g><g transform="translate(0 -0.001)"><path class="a" d="M11.143,5.1V-3.776H21.266a2.685,2.685,0,0,1,2.068.887L31.314,5.1Zm-2.955,0h-18.7l7.98-7.985a2.924,2.924,0,0,1,2.07-.887H8.187Zm34.728,0H36.784a2.68,2.68,0,0,1-2.07-.887L25.4-5.032a5.858,5.858,0,0,0-4.211-1.7H-.459a5.984,5.984,0,0,0-4.211,1.7l-9.163,9.242a2.961,2.961,0,0,0-.887,2.143v7.616a5.931,5.931,0,0,0,5.912,5.914h.738A8.108,8.108,0,0,1,.06,11.75a8.107,8.107,0,0,1,8.128,8.133H27.4a8.129,8.129,0,1,1,16.257,0H47.35a2.965,2.965,0,0,0,2.955-2.957V12.49A7.414,7.414,0,0,0,42.915,5.1" transform="translate(14.72 6.733)"/></g></g></g><g transform="translate(327.3 107.222)"><g transform="translate(0 0)"><path class="a" d="M3.978,0-4.037,11.816l3.376-.424-5.483,8.441,4.64-1.266L-9.1,30.382,2.29,28.272v8.862H5.665V28.272l11.386,2.11L9.461,18.567,14.1,19.833,8.617,11.392l3.375.424Z" transform="translate(9.096)"/></g></g><g transform="translate(358.953 111.854)"><g transform="translate(0 0)"><path class="a" d="M3.978,0-4.037,11.816l3.376-.424-5.483,8.441,4.64-1.266L-9.1,30.382,2.29,28.272v8.862H5.665V28.272l11.386,2.11L9.461,18.567,14.1,19.833,8.617,11.392l3.375.424Z" transform="translate(9.096)"/></g></g><g transform="translate(139.306 26.319)"><g class="e" transform="translate(0 0)"><g transform="translate(0 0)"><path class="c" d="M11.768,3.886H11.29A7.194,7.194,0,0,0,8.274-1.957a7.269,7.269,0,0,0-6.559-.91A8.648,8.648,0,0,0-7.954-7.322a8.606,8.606,0,0,0-6.606,8.334v.1a7.25,7.25,0,0,0-6.892,2.777,7.315,7.315,0,0,0-.766,7.375,7.314,7.314,0,0,0,6.174,4.119v.048H11.72a5.772,5.772,0,0,0,.048-11.543" transform="translate(22.878 7.554)"/></g></g></g><g transform="translate(194.092)"><g class="f" transform="translate(0 0)"><g transform="translate(0 0)"><path class="c" d="M34.58,11.418h-.794a11.931,11.931,0,0,0-5-9.689A12.055,12.055,0,0,0,17.909.219,14.342,14.342,0,0,0,1.873-7.17,14.272,14.272,0,0,0-9.082,6.651v.161a12.024,12.024,0,0,0-11.43,4.606,12.131,12.131,0,0,0-1.271,12.231A12.13,12.13,0,0,0-11.543,30.48v.08H34.5a9.572,9.572,0,0,0,.08-19.142" transform="translate(22.878 7.554)"/></g></g></g></svg>