<?xml version="1.0" encoding="utf-8"?>
<!-- Generator: Adobe Illustrator 18.1.1, SVG Export Plug-In . SVG Version: 6.00 Build 0)  -->
<svg version="1.1" id="Layer_1" xmlns="http://www.w3.org/2000/svg" xmlns:xlink="http://www.w3.org/1999/xlink" x="0px" y="0px"
	 viewBox="0 0 864 772.5" enable-background="new 0 0 864 772.5" xml:space="preserve">
<path fill="#FFFFFF" d="M408.9,176.8 M494.7,229.8l83.8,199.7L716.9,67c12.5-32,2.3-43-54.7-44.5V7.6h161.7v14.8
	c-47.7,0-58.6,9.4-82,71.1L584.8,506.1h-37.5l-84-198L494.7,229.8z M409,177.2L363.7,67c-15.6-38.3-39.1-44.5-80.5-44.5V7.6h379
	v14.8h-58.6c-48.4,0-64.9,11.7-77.4,41.4l-50,121.9L445,264.7l-98.5,241.4h-38.3L145.7,90.4c-23.4-59.4-42.2-68-92.2-68h-4.7V7.6
	h234.4v14.8h-45.3c-36.7,0-50.8,16.4-37.5,49.2l142.2,357.9L427,220.9L493.4,56c8.6-21.1,3.1-33.6-19.5-33.6h-32.8
	c-20.3,0-31.3,7.8-21.9,28.9L440,99.6L409,177.2"/>
<g>
	<path fill="#FFFFFF" d="M113.7,729.2l-22-51.9l-21.2,51.9h-8.2l-35-89.4c-5-12.8-9.1-14.6-19.8-14.6h-1V622H50v3.2h-2.9
		c-7.9,0-10.9,3.5-8.1,10.6l30.6,77l18.1-44.9l-13.6-33.1c-3.4-8.2-8.4-9.6-17.3-9.6V622h68.9v3.2c-10.4,0-13.9,2.5-16.6,8.9
		l-10.8,26.2l22,52.4l29.7-78c2.7-6.9,0.5-9.2-11.8-9.6V622h34.8v3.2c-10.2,0-12.6,2-17.6,15.3l-33.8,88.7H113.7z M102.1,632.4
		c1.8-4.5,0.7-7.2-4.2-7.2h-7.1c-4.4,0-6.7,1.7-4.7,6.2l8.4,19.5L102.1,632.4z"/>
	<path fill="#FFFFFF" d="M161.6,683.9c-0.3,2.5-0.7,4.9-0.7,7.1c0,17.5,12.3,29.2,25.5,29.2c8.4,0,15-3.4,21.3-10.9l1.8,2
		c-7.1,8.9-17.6,17.3-29.9,17.3c-16.5,0-29.2-15-29.2-34.4c0-17.8,11.9-36,32.4-36c22.7,0,22.2,16.3,27.7,21.8v3.9H161.6z
		 M196.5,679.5c-1.8-10.9-8.6-18.1-16.6-18.1c-5.5,0-13.9,2.5-17.8,18.1H196.5z"/>
	<path fill="#FFFFFF" d="M235.3,713.3c0,6.9,3.2,10.1,9.7,10.1h2.9v3.2h-37.8v-3.2c10.8,0,13.9-3.2,13.9-11.3v-81.2
		c0-4.7-0.5-6.2-5.2-6.7l-7.6-0.8v-2.9l21.5-6.9h2.5V713.3z"/>
	<path fill="#FFFFFF" d="M275.7,713.3c0,6.9,3.2,10.1,9.7,10.1h2.9v3.2h-37.8v-3.2c10.8,0,13.9-3.2,13.9-11.3v-81.2
		c0-4.7-0.5-6.2-5.2-6.7l-7.6-0.8v-2.9l21.5-6.9h2.5V713.3z"/>
	<path fill="#FFFFFF" d="M297.8,709.6c2,10.1,8.4,15.8,16,15.8c6.7,0,11.9-5,11.9-11.1c0-3.5-0.8-5.7-5.4-10.3
		c-11.9-11.9-25.2-13.1-25.2-27.1c0-11.1,8.7-18.8,21.5-18.8c4.5,0,9.2,1,13.4,2.7l0.3,15.3h-2.9c-1.2-8.6-6.7-13.9-13.4-13.9
		c-5.5,0-10.3,3.9-10.3,9.4c0,14.8,31.3,17.3,31.3,37.8c0,10.9-9.1,19.2-20.8,19.2c-3.2,0-5.5-0.5-7.4-1.2c-1.8-0.5-3.2-1-4.5-1
		c-1,0-2,0.7-2.9,2H297l-1.8-18.8H297.8z"/>
	<path fill="#FFFFFF" d="M495.6,649.6c-5.5-15.6-20-25.9-38.3-25.9c-28.1,0-45.5,20.3-45.5,48.6c0,30.4,21.8,52.8,47.4,52.8
		c13.3,0,29.6-4.5,41-24.9h3.2c-2.2,7.6-6.7,18-10.8,24.5c-10.8-1.5-18.1,4.5-38,4.5c-34.1,0-58.6-22.5-58.6-53.6
		c0-32.6,25.2-56.1,60.3-56.1c21.2,0,30.2,6.7,35.5,6.7c1.8,0,2.7-0.5,3-1h2.5l1.5,24.4H495.6z"/>
	<path fill="#FFFFFF" d="M544.2,658.1c20.5,0,36.1,15.3,36.1,35.3c0,19.8-15.6,35.1-35.6,35.1c-20.8,0-36.8-15.1-36.8-34.8
		C507.9,670.6,526.7,658.1,544.2,658.1z M546.5,724.5c9.9,0,21.2-10.1,21.2-26.9c0-19.2-11.8-35.5-25.9-35.5
		c-11.1,0-21.3,11.4-21.3,25.9C520.5,708.4,532.1,724.5,546.5,724.5z"/>
	<path fill="#FFFFFF" d="M603.7,713.3c0,6.9,3.2,10.1,9.7,10.1h2.9v3.2h-37.8v-3.2c10.8,0,13.9-3.2,13.9-11.3v-81.2
		c0-4.7-0.5-6.2-5.2-6.7l-7.6-0.8v-2.9l21.5-6.9h2.5V713.3z"/>
	<path fill="#FFFFFF" d="M644,713.3c0,6.9,3.2,10.1,9.7,10.1h2.9v3.2h-37.8v-3.2c10.8,0,13.9-3.2,13.9-11.3v-81.2
		c0-4.7-0.5-6.2-5.2-6.7l-7.6-0.8v-2.9l21.5-6.9h2.5V713.3z"/>
	<path fill="#FFFFFF" d="M667.5,683.9c-0.3,2.5-0.7,4.9-0.7,7.1c0,17.5,12.3,29.2,25.5,29.2c8.4,0,15-3.4,21.3-10.9l1.8,2
		c-7.1,8.9-17.6,17.3-29.9,17.3c-16.5,0-29.2-15-29.2-34.4c0-17.8,11.9-36,32.4-36c22.7,0,22.2,16.3,27.7,21.8v3.9H667.5z
		 M702.5,679.5c-1.8-10.9-8.6-18.1-16.6-18.1c-5.5,0-13.9,2.5-17.8,18.1H702.5z"/>
	<path fill="#FFFFFF" d="M793.2,673.8c-2.5-0.2-10.4-0.8-16.8-2c1,1.8,2.9,5.4,2.9,10.8c0,12.4-10.8,24.4-29.4,24.4
		c-3.2,0-4.7-0.3-7.7-1.3c-2.7,2.9-10.2,4.7-10.2,8.6c0,4.2,7.2,5.9,24,6c19,0.2,25.5,1,30.6,6.1c4,4,5,8.2,5,11.8
		c0,10.9-14.8,27.7-45.9,27.7c-17.5,0-25.9-7.7-25.9-16c0-9.7,10.2-11.3,18-20.7c-9.1-0.8-16-6.6-16-11.9c0-7.7,11.3-8.1,17.1-12.4
		c-10.3-4-16.1-11.3-16.1-20.8c0-14.5,12.9-25.7,29.6-25.7c7.7,0,14.3,2.4,18.8,6.7c7.6,0,14.6-0.8,22-1.7V673.8z M755.1,761
		c14.3,0,27.7-9.4,27.7-20c0-6.2-5.2-9.4-11.3-9.9c-4.4-0.5-25.5-0.7-30.4-1.3c-4.7,5.5-10.9,7.9-10.9,14.5
		C730.2,752.1,741.3,761,755.1,761z M750.4,661.3c-6.4,0-16.3,3.5-16.3,19.2c0,9.9,5,23.2,17.8,23.2c9.7,0,16.1-8.1,16.1-19.7
		C768,669.6,760.6,661.3,750.4,661.3z"/>
	<path fill="#FFFFFF" d="M806.3,683.9c-0.3,2.5-0.7,4.9-0.7,7.1c0,17.5,12.3,29.2,25.5,29.2c8.4,0,15-3.4,21.3-10.9l1.8,2
		c-7.1,8.9-17.6,17.3-29.9,17.3c-16.5,0-29.2-15-29.2-34.4c0-17.8,11.9-36,32.4-36c22.7,0,22.2,16.3,27.7,21.8v3.9H806.3z
		 M841.3,679.5c-1.8-10.9-8.6-18.1-16.6-18.1c-5.5,0-13.9,2.5-17.8,18.1H841.3z"/>
</g>
</svg>
